<?xml version="1.0" standalone="no"?>
<!DOCTYPE svg PUBLIC "-//W3C//DTD SVG 20010904//EN"
 "http://www.w3.org/TR/2001/REC-SVG-20010904/DTD/svg10.dtd">
<svg version="1.0" xmlns="http://www.w3.org/2000/svg"
 width="750.000000pt" height="297.000000pt" viewBox="0 0 750.000000 297.000000"
 preserveAspectRatio="xMidYMid meet">

<g transform="translate(0.000000,297.000000) scale(0.100000,-0.100000)"
fill="#000000" stroke="none">
<path d="M2696 2115 c-26 -63 -51 -115 -55 -115 -3 0 -16 39 -28 87 -15 61
-19 92 -12 105 9 17 4 18 -66 18 -47 0 -75 -4 -75 -11 0 -6 20 -98 45 -206 25
-107 45 -196 45 -199 0 -2 26 -4 58 -4 l57 0 19 48 c11 26 30 72 43 102 l24
55 43 -100 43 -100 56 -3 c46 -2 56 0 61 15 12 42 86 373 86 387 0 13 -13 16
-76 16 -66 0 -75 -2 -64 -15 9 -11 7 -33 -11 -105 -13 -49 -26 -90 -29 -90 -3
0 -28 52 -54 115 -27 63 -52 115 -55 115 -3 0 -28 -52 -55 -115z"/>
<path d="M2185 2215 c-5 -2 -27 -6 -48 -10 -47 -8 -104 -57 -128 -110 -22 -47
-24 -120 -7 -179 52 -172 337 -185 410 -18 16 35 19 61 16 117 -4 89 -35 142
-100 173 -41 19 -122 35 -143 27z m53 -106 c83 -29 80 -204 -4 -225 -115 -29
-161 181 -49 227 11 4 20 8 21 8 1 1 15 -4 32 -10z"/>
<path d="M1596 2193 c13 -26 17 -341 5 -374 l-10 -29 78 0 77 0 -4 59 -4 58
59 7 c112 13 167 70 160 168 -6 104 -54 128 -252 128 -108 0 -116 -1 -109 -17z
m223 -77 c14 -9 14 -71 1 -97 -8 -13 -21 -19 -45 -19 l-35 0 0 69 0 69 34 -8
c18 -4 39 -10 45 -14z"/>
<path d="M3096 2193 c14 -28 17 -359 4 -383 -11 -20 -8 -20 140 -20 l150 0 0
53 0 52 -80 -3 -80 -4 0 31 c0 31 0 31 53 31 30 0 56 2 58 4 3 3 3 23 1 45
l-4 41 -55 0 -54 0 3 33 3 32 60 0 c33 -1 68 -4 78 -9 15 -7 17 -2 17 53 l0
61 -151 0 c-141 0 -151 -1 -143 -17z"/>
<path d="M3450 2184 c13 -34 13 -350 0 -375 -10 -18 -7 -19 67 -19 l78 0 -3
76 c-4 61 -2 76 9 72 20 -7 79 -110 75 -130 -4 -16 5 -18 81 -18 65 0 82 3 77
13 -52 85 -96 147 -104 142 -5 -3 -11 -1 -15 5 -3 5 1 10 10 10 10 0 32 15 51
34 30 30 34 40 34 89 0 101 -50 127 -247 127 l-123 0 10 -26z m220 -74 c40
-40 12 -100 -46 -100 l-34 0 0 60 0 60 30 0 c17 0 39 -9 50 -20z"/>
<path d="M3877 2188 c11 -30 10 -358 -1 -380 -8 -17 2 -18 143 -18 l151 0 0
53 0 52 -80 -3 -80 -4 0 31 c0 31 0 31 55 31 l55 0 0 45 0 45 -55 0 -55 0 0
35 0 35 56 0 c30 0 64 -5 75 -10 18 -10 19 -7 19 50 l0 60 -146 0 -145 0 8
-22z"/>
<path d="M4227 2188 c11 -31 10 -358 -1 -381 -8 -18 -2 -18 131 -15 133 3 142
4 181 31 103 68 121 237 35 323 -46 47 -113 64 -245 64 -109 0 -109 0 -101
-22z m233 -93 c30 -27 43 -78 31 -123 -13 -48 -45 -78 -93 -87 l-38 -7 0 122
0 123 41 -6 c22 -3 49 -13 59 -22z"/>
<path d="M4850 2185 c13 -35 13 -351 0 -376 -10 -18 -6 -19 124 -19 155 0 207
14 231 61 18 33 19 82 4 111 -6 11 -27 26 -46 35 l-36 15 26 21 c34 28 46 64
35 104 -14 54 -52 67 -211 71 l-137 4 10 -27z m210 -70 c19 -22 4 -64 -25 -71
-41 -10 -51 -1 -47 45 4 37 7 41 32 41 15 0 33 -7 40 -15z m21 -166 c25 -40
-12 -92 -63 -87 -30 3 -31 4 -30 56 0 28 1 54 1 56 2 9 84 -13 92 -25z"/>
<path d="M5240 2206 c0 -8 114 -212 126 -227 17 -19 19 -141 4 -170 -10 -18
-7 -19 75 -19 82 0 85 1 75 19 -13 25 -13 161 -1 161 9 0 109 177 126 223 6
15 -1 17 -75 17 -77 0 -81 -1 -75 -20 6 -19 -30 -136 -45 -145 -4 -2 -19 25
-33 62 -20 49 -24 70 -16 84 9 18 5 19 -76 19 -47 0 -85 -2 -85 -4z"/>
<path d="M3035 1719 c-8 -19 -46 -106 -84 -193 -37 -88 -72 -161 -77 -163 -5
-2 -27 63 -47 143 -35 136 -37 147 -23 170 9 13 16 26 16 29 0 3 -59 5 -131 5
-119 0 -130 -1 -125 -17 6 -22 156 -673 156 -679 0 -3 43 -3 96 -2 l96 3 67
160 c37 88 71 160 75 160 5 0 40 -72 77 -160 l67 -160 94 -3 94 -3 64 273 c35
150 71 308 80 351 l18 77 -129 0 c-71 0 -129 -2 -129 -5 0 -3 6 -16 14 -28 13
-20 11 -37 -22 -170 -20 -81 -41 -146 -46 -144 -6 2 -46 87 -91 190 -44 102
-83 189 -87 193 -4 3 -14 -9 -23 -27z"/>
<path d="M4062 1703 c-134 -45 -189 -161 -131 -280 27 -56 66 -85 174 -131 49
-21 94 -47 102 -59 14 -20 13 -24 -11 -48 -44 -44 -137 -28 -211 37 -36 32
-63 47 -65 36 -5 -28 -27 -244 -25 -246 1 -1 13 1 26 6 15 6 42 4 79 -6 80
-22 222 -21 289 2 102 35 161 125 147 225 -12 89 -75 149 -200 191 -75 25
-126 55 -126 74 0 25 42 46 90 46 34 0 59 -8 93 -30 26 -16 47 -34 47 -40 0
-17 38 -11 44 8 2 9 7 51 11 92 3 41 8 87 11 101 5 25 3 26 -43 26 -26 1 -93
3 -148 7 -81 5 -110 3 -153 -11z"/>
<path d="M460 1705 c0 -3 7 -22 15 -42 12 -28 15 -88 15 -305 0 -216 -3 -276
-15 -305 -8 -19 -15 -37 -15 -40 0 -2 98 -3 218 -1 210 3 219 4 273 29 119 56
180 155 187 301 6 114 -15 181 -76 249 -85 95 -171 119 -429 119 -95 0 -173
-2 -173 -5z m370 -167 c55 -28 90 -89 90 -158 0 -128 -70 -210 -180 -210 l-40
0 0 195 0 195 43 0 c24 0 62 -10 87 -22z"/>
<path d="M1210 1702 c0 -5 7 -26 15 -45 12 -29 15 -88 15 -300 0 -213 -3 -272
-15 -300 -8 -20 -15 -39 -15 -42 0 -3 61 -5 136 -5 l135 0 -15 22 c-12 17 -16
48 -16 125 0 94 2 103 19 103 27 0 134 -185 128 -222 l-4 -28 139 0 c76 0 138
2 138 4 0 3 -36 61 -81 130 -73 112 -84 125 -112 128 -31 3 -31 4 26 31 31 16
68 43 81 60 88 120 42 285 -92 328 -46 15 -482 25 -482 11z m369 -151 c31 -22
42 -61 30 -106 -12 -44 -42 -64 -108 -72 l-51 -6 0 100 c0 55 3 103 7 107 12
11 96 -5 122 -23z"/>
<path d="M2037 1662 c4 -37 -8 -111 -52 -313 -31 -145 -66 -281 -76 -301 l-19
-38 127 0 128 0 0 53 c0 28 4 64 8 80 7 26 9 27 82 27 73 0 75 -1 82 -27 4
-16 8 -52 8 -80 l0 -53 118 0 c108 0 118 2 113 18 -6 18 -146 668 -146 677 0
3 -85 5 -190 5 l-189 0 6 -48z m216 -187 c9 -49 19 -105 23 -122 l7 -33 -52 0
c-44 0 -51 3 -51 19 0 23 29 209 36 230 9 27 21 -4 37 -94z"/>
<path d="M4470 1605 c0 -58 3 -105 8 -105 4 1 18 7 32 15 14 8 52 14 88 15
l62 0 0 -230 c0 -188 -3 -237 -15 -260 l-16 -30 141 0 141 0 -16 30 c-13 25
-15 68 -13 257 l3 228 63 3 c46 2 71 -2 89 -13 14 -9 27 -14 30 -12 3 3 7 51
10 106 l6 101 -307 0 -306 0 0 -105z"/>
<path d="M5130 1705 c0 -3 7 -22 15 -42 21 -51 21 -575 0 -613 -8 -14 -14 -28
-15 -32 0 -5 113 -8 250 -8 l250 0 0 96 0 96 -25 -16 c-18 -12 -50 -16 -130
-16 l-105 0 0 55 0 55 90 0 90 0 0 75 0 75 -90 0 -90 0 0 55 0 55 93 0 c61 -1
100 -6 117 -15 14 -8 28 -14 33 -15 4 0 7 45 7 100 l0 100 -245 0 c-135 0
-245 -2 -245 -5z"/>
<path d="M5725 1674 c22 -52 22 -578 1 -629 l-15 -35 255 0 254 0 0 95 c0 52
-3 95 -7 95 -5 0 -17 -7 -27 -15 -15 -11 -48 -15 -128 -15 l-108 0 0 55 0 55
95 0 96 0 -3 73 -3 72 -92 3 -93 3 0 54 0 55 90 0 c71 0 99 -4 130 -20 l40
-20 0 105 0 105 -250 0 -250 0 15 -36z"/>
<path d="M6300 1701 c0 -5 7 -25 15 -44 12 -29 15 -88 15 -300 0 -213 -3 -272
-15 -300 -8 -20 -15 -39 -15 -42 0 -3 113 -5 250 -5 l250 0 0 100 c0 55 -4
100 -8 100 -5 0 -17 -7 -28 -15 -13 -10 -47 -14 -116 -15 l-98 0 0 240 c0 205
2 244 16 265 l16 25 -141 0 c-77 0 -141 -4 -141 -9z"/>
</g>
</svg>
